#!OML:ASF F:\VICON\USERDATA\INSTALL\rory3\rory3.ASF
:FULLY-SPECIFIED
:DEGREES
4250
root -0.919226 18.3925 5.96732 -0.77461 -18.2367 7.29178
lowerback 9.95104 -2.67192 -3.53703
upperback 1.5143 -3.95998 -0.601124
thorax -3.79563 -1.92222 1.86992
lowerneck -16.885 2.08025 -5.98858
upperneck 8.3015 3.32347 6.52183
head 5.01783 1.90511 3.32006
rclavicle -2.20651e-014 6.75868e-015
rhumerus -20.1389 20.4877 -80.6719
rradius 48.359
rwrist 0.399337
rhand -40.5009 355.844
rfingers 7.12502
rthumb -13.4506 -753.702
lclavicle -2.20651e-014 6.75868e-015
lhumerus 37.1423 -13.9442 50.8616
lradius 64.1536
lwrist -33.0351
lhand -50.0665 49.157
lfingers 7.12502
lthumb -22.6529 77.8476
rfemur -18.2091 17.8123 8.38801
rtibia 39.1315
rfoot -20.6673 -16.5706
rtoes -7.04728
lfemur -3.39004 -2.69812 -15.8277
ltibia 17.4227
lfoot -13.0147 22.011
ltoes -11.0613
4251
root -0.916295 18.3954 5.9677 -0.708849 -18.4855 7.24531
lowerback 9.90966 -2.7867 -3.31818
upperback 1.56307 -4.08243 -0.516436
thorax -3.7241 -1.98751 1.84652
lowerneck -17.0643 2.15247 -5.75624
upperneck 8.54123 3.3898 6.35282
head 5.12415 1.93423 3.24315
rclavicle -3.53837e-014 3.57812e-015
rhumerus -20.169 20.2805 -80.7065
rradius 48.412
rwrist 0.432617
rhand -40.5082 356.333
rfingers 7.12502
rthumb -13.4576 -753.212
lclavicle -3.53837e-014 3.57812e-015
lhumerus 38.1818 -15.1366 49.2642
lradius 63.37
lwrist -33.626
lhand -50.1077 47.8487
lfingers 7.12502
lthumb -22.6925 76.5344
rfemur -18.3562 17.9304 8.3934
rtibia 39.1168
rfoot -20.6068 -16.4713
rtoes -7.00806
lfemur -3.39668 -2.6149 -15.7863
ltibia 17.423
lfoot -13.1802 22.0958
ltoes -10.6582
4252
root -0.9108 18.3973 5.97089 -0.67192 -18.7575 7.32961
lowerback 9.81288 -2.86366 -3.25557
upperback 1.61206 -4.16788 -0.394957
thorax -3.61009 -2.03327 1.93989
lowerneck -17.1716 2.2102 -5.77897
upperneck 8.72386 3.47811 6.30635
head 5.19326 1.97375 3.24554
rclavicle -3.53837e-014 -5.56597e-015
rhumerus -20.2319 20.21 -80.582
rradius 48.5887
rwrist 0.181185
rhand -40.6619 356.418
rfingers 7.12502
rthumb -13.6058 -753.117
lclavicle -3.53837e-014 -5.56597e-015
lhumerus 39.2731 -16.3943 47.3651
lradius 62.7812
lwrist -34.0707
lhand -50.4596 46.9298
lfingers 7.12502
lthumb -23.0302 75.5738
rfemur -18.5092 18.0134 8.23467
rtibia 39.0873
rfoot -20.5054 -16.3554
rtoes -7.13253
lfemur -3.37893 -2.53838 -15.906
ltibia 17.3413
lfoot -13.2054 22.3094
ltoes -10.7035
4253
root -0.907013 18.399 5.9802 -0.687634 -19.0134 7.47991
lowerback 9.67174 -2.91579 -3.27391
upperback 1.65022 -4.22653 -0.243444
thorax -3.4759 -2.06511 2.10336
lowerneck -17.0846 2.22974 -5.9392
upperneck 8.80494 3.53521 6.30296
head 5.19795 1.99447 3.27479
rclavicle 2.68359e-015 -1.03368e-014
rhumerus -20.3404 20.0235 -80.3666
rradius 48.7069
rwrist -0.0440121
rhand -40.9149 356.19
rfingers 7.12502
rthumb -13.8496 -753.329
lclavicle 2.68359e-015 -1.03368e-014
lhumerus 40.4582 -17.6813 45.562
lradius 62.0157
lwrist -34.5774
lhand -50.8304 46.0719
lfingers 7.12502
lthumb -23.3859 74.6711
rfemur -18.5866 18.0847 8.01741
rtibia 39.0592
rfoot -20.456 -16.1758
rtoes -6.98971
lfemur -3.2606 -2.42333 -16.1049
ltibia 17.1825
lfoot -13.1788 22.4825
ltoes -10.7496
4254
root -0.905053 18.4034 5.99224 -0.714101 -19.2256 7.63178
lowerback 9.54731 -2.97743 -3.27161
upperback 1.68089 -4.2993 -0.153856
thorax -3.36401 -2.10394 2.19388
lowerneck -16.9867 2.26249 -5.81554
upperneck 8.8666 3.56507 6.1399
head 5.20472 1.99966 3.20462
rclavicle -1.0466e-013 3.10104e-014
rhumerus -20.4005 19.6475 -80.2033
rradius 48.6964
rwrist 0.215505
rhand -40.6795 355.853
rfingers 7.12502
rthumb -13.6228 -753.681
lclavicle -1.0466e-013 3.10104e-014
lhumerus 41.6622 -18.9453 43.7357
lradius 61.1403
lwrist -35.3917
lhand -50.353 44.9824
lfingers 7.12502
lthumb -22.9279 73.6392
rfemur -18.6289 18.1126 7.82234
rtibia 39.0367
rfoot -20.4608 -16.0269
rtoes -7.0681
lfemur -3.14189 -2.2489 -16.2894
ltibia 17.0614
lfoot -13.1506 22.5321
ltoes -10.7297
4255
root -0.901465 18.4049 5.9991 -0.747242 -19.5102 7.73104
lowerback 9.55692 -3.06443 -3.26539
upperback 1.69861 -4.40993 -0.0449512
thorax -3.33611 -2.15947 2.3153
lowerneck -17.056 2.33644 -5.6632
upperneck 9.09393 3.6417 6.02257
head 5.28736 2.03325 3.15557
rclavicle -1.88845e-015 -1.90833e-014
rhumerus -20.4131 19.423 -80.0903
rradius 48.7234
rwrist 0.544011
rhand -40.1705 356.219
rfingers 7.12502
rthumb -13.1321 -753.347
lclavicle -1.88845e-015 -1.90833e-014
lhumerus 42.734 -20.1377 41.6395
lradius 60.5507
lwrist -36.1317
lhand -49.2343 44.864
lfingers 7.12502
lthumb -21.854 73.6499
rfemur -18.7101 18.2472 7.67796
rtibia 39.0198
rfoot -20.4407 -15.886
rtoes -6.96444
lfemur -3.04776 -2.09266 -16.4207
ltibia 17.0023
lfoot -13.093 22.6986
ltoes -11.0956
